<svg xmlns="http://www.w3.org/2000/svg" width="17.063" height="22.611" viewBox="0 0 17.063 22.611">
  <g id="Component_3_1" data-name="Component 3 – 1" transform="translate(0.572)">
    <path id="Path_20" data-name="Path 20" d="M0,0,3,17.808l7.61-.146L13.3.636Z" transform="translate(0 4.45) rotate(-9)" fill="#fff" stroke="#bcd6e0" stroke-linejoin="round" stroke-width="1"/>
    <path id="Path_21" data-name="Path 21" d="M0,0H1.24V17.49H0Z" transform="translate(0.674 0.444) rotate(-21)" fill="#919191"/>
    <g id="Ellipse_19" data-name="Ellipse 19" transform="matrix(0.998, -0.07, 0.07, 0.998, 8.444, 1.544)" fill="#fff" stroke="#d80000" stroke-width="0.5">
      <ellipse cx="1.637" cy="1.637" rx="1.637" ry="1.637" stroke="none"/>
      <ellipse cx="1.637" cy="1.637" rx="1.387" ry="1.387" fill="none"/>
    </g>
    <path id="Path_22" data-name="Path 22" d="M0,0,2.191,14.556,7.968,14.4,9.845,2.96Z" transform="translate(2.009 5.79) rotate(-9)" fill="#d80000"/>
    <g id="Ellipse_20" data-name="Ellipse 20" transform="matrix(0.998, -0.07, 0.07, 0.998, 7.869, 7.019)" fill="#fff" stroke="#d80000" stroke-width="0.5">
      <ellipse cx="1.092" cy="1.092" rx="1.092" ry="1.092" stroke="none"/>
      <ellipse cx="1.092" cy="1.092" rx="0.842" ry="0.842" fill="none"/>
    </g>
    <g id="Ellipse_21" data-name="Ellipse 21" transform="matrix(0.998, -0.07, 0.07, 0.998, 5.627, 4.149)" fill="#fff" stroke="#d80000" stroke-width="0.5">
      <ellipse cx="1.092" cy="1.092" rx="1.092" ry="1.092" stroke="none"/>
      <ellipse cx="1.092" cy="1.092" rx="0.842" ry="0.842" fill="none"/>
    </g>
  </g>
</svg>
